<?xml version="1.0" encoding="utf-8"?>
<!-- Generator: Adobe Illustrator 16.0.0, SVG Export Plug-In . SVG Version: 6.00 Build 0)  -->
<!DOCTYPE svg PUBLIC "-//W3C//DTD SVG 1.1//EN" "http://www.w3.org/Graphics/SVG/1.1/DTD/svg11.dtd">
<svg version="1.1" id="Layer_1" xmlns="http://www.w3.org/2000/svg" xmlns:xlink="http://www.w3.org/1999/xlink" x="0px" y="0px"
	 width="960px" height="960px" viewBox="0 0 960 960" enable-background="new 0 0 960 960" xml:space="preserve">
<g>
	<g>
		<path fill="#407776" d="M940.343,755.734c0,3.688-0.235,11.007-0.235,11.007s-79.085-61.464-189.148-94.011
			c-39.637-11.719-83.293-19.694-128.717-19.694c-45.119,0-88.432,7.706-127.779,19.077
			c-110.768,32.016-190.148,93.088-190.148,93.088s-0.172-6.298-0.172-9.468c0-157.066,142.419-284.393,318.1-284.393
			C797.924,471.341,940.343,598.668,940.343,755.734z"/>
		<path fill="#234141" d="M778.656,281.747c0,87.549-70.976,158.521-158.521,158.521c-87.547,0-158.521-70.971-158.521-158.521
			c0-87.549,70.974-158.521,158.521-158.521C707.681,123.226,778.656,194.198,778.656,281.747z"/>
	</g>
	<g>
		<path fill="#407776" d="M372.474,530.809c-0.634-0.144-30.51,21.85-49.672,50.2c-19.678,29.118-31.564,54.471-32.234,54.428
			c-6.348-0.414-30.618-2.809-37.067-2.809c-33.154,0-64.982,5.663-93.896,14.019c-81.396,23.527-139.728,68.405-139.728,68.405
			s-0.126-4.629-0.126-6.956c0-115.421,104.654-208.984,233.751-208.984c35.077,0.003,68.354,6.909,98.213,19.287"/>
		<path fill="#234141" d="M368.441,359.791c0,64.333-52.155,116.485-116.486,116.485c-64.334,0-116.488-52.151-116.488-116.485
			c0-64.334,52.154-116.487,116.488-116.487C316.286,243.304,368.441,295.457,368.441,359.791z"/>
	</g>
</g>
</svg>
